Coordinates
version=1
nRows=4
nColumns=107
inDegrees=yes

Units are S.I. units (second, meters, Newtons, ...)
If the header above contains a line with 'inDegrees', this indicates whether rotational values are in degrees (yes) or radians (no).

endheader
time	sternoclavicular_r2	sternoclavicular_r3	unrotscap_r3	unrotscap_r2	acromioclavicular_r2	acromioclavicular_r3	acromioclavicular_r1	unrothum_r1	unrothum_r3	unrothum_r2	elv_angle	shoulder_elv	shoulder1_r2	shoulder_rot	elbow_flexion	pro_sup	deviation	flexion	proximal_distal_r1	proximal_distal_r3	cmc_flexion	cmc_abduction	mp_flexion	ip_flexion	mcp2_flexion	mcp2_abduction	pm2_flexion	md2_flexion	mcp3_flexion	mcp3_abduction	pm3_flexion	md3_flexion	mcp4_flexion	mcp4_abduction	pm4_flexion	md4_flexion	mcp5_flexion	mcp5_abduction	pm5_flexion	md5_flexion	bicpt_tx	bicpt_ty	bicpt_tz	bicpt2_tx	bicpt2_ty	bicpt2_tz	ptpt_tx	ptpt_ty	ptpt_tz	FCUpt_tx	FCUpt_ty	FCUpt_tz	EDCpt_tx	EDCpt_ty	EDCpt_tz	APLpt_tx	APLpt_ty	APLpt_tz	FPLpt_tx	FPLpt_ty	FPLpt_tz	FPLpt2_tx	FPLpt2_ty	FPLpt2_tz	PEC1pt2_tx	PEC1pt2_ty	PEC1pt2_tz	PEC1pt3_tx	PEC1pt3_ty	PEC1pt3_tz	PEC2pt2_tx	PEC2pt2_ty	PEC2pt2_tz	PEC2pt3_tx	PEC2pt3_ty	PEC2pt3_tz	PEC3pt2_tx	PEC3pt2_ty	PEC3pt2_tz	PEC3pt3_tx	PEC3pt3_ty	PEC3pt3_tz	DELT2pt2a_tx	DELT2pt2a_ty	DELT2pt2a_tz	DELT2pt2_tx	DELT2pt2_ty	DELT2pt2_tz	LAT1pt2_tx	LAT1pt2_ty	LAT1pt2_tz	LAT1pt3_tx	LAT1pt3_ty	LAT1pt3_tz	LAT2pt2_tx	LAT2pt2_ty	LAT2pt2_tz	LAT2pt3_tx	LAT2pt3_ty	LAT2pt3_tz	LAT3pt2_tx	LAT3pt2_ty	LAT3pt2_tz	LAT3pt3_tx	LAT3pt3_ty	LAT3pt3_tz
      1.30000000	     -0.31486815	      0.13336329	     -0.13336329	      0.31486815	     -0.06375440	      0.51524060	      0.23159710	     -0.23159710	     -0.51524060	      0.06375440	    100.79951540	     74.54783358	     -1.75928343	    -36.01241452	     32.10346197	     87.22378441	      0.36977258	     -0.45257240	      0.38991754	     -0.22628620	     42.60186604	    -21.48680469	     14.52401321	      8.58014403	    100.59820930	     11.01465206	     75.35956369	     82.12775819	    101.16690054	     -3.76247002	     75.91791393	     59.09041355	     95.76266047	    -13.96976312	     87.79622490	     47.79246159	    103.61009414	    -14.22523729	     96.77241358	      5.35842641	      0.00096188	     -0.03127955	     -0.00489268	      0.01411169	     -0.01892106	     -0.00086542	      0.00110515	     -0.06906735	     -0.00707634	      0.01287882	     -0.18219608	      0.00011807	     -0.01046683	      0.00364540	     -0.00079692	      0.00029152	      0.00011661	      0.00058303	      0.00037314	      0.00111942	      0.00062968	     -0.00000616	     -0.00005676	     -0.00006811	      0.00244351	      0.00857301	      0.00596383	     -0.00799319	      0.01929962	     -0.01830565	      0.00244351	      0.00857301	      0.00596383	      0.00053840	      0.01789150	     -0.00940132	      0.00388617	      0.00476734	      0.01581465	      0.00000000	      0.00743008	      0.00000000	     -0.00699922	     -0.03234550	     -0.00612441	      0.02130155	     -0.00096708	     -0.01063297	     -0.00086973	      0.01457826	     -0.00596383	      0.00240210	      0.02103907	     -0.01739451	     -0.00583959	      0.01263173	     -0.00534260	     -0.01217616	      0.02667158	     -0.02986057	     -0.02286135	      0.01412268	     -0.00716488	     -0.01515807	      0.03081313	     -0.03731536
      1.33333333	     -0.31434272	      0.13314074	     -0.13314074	      0.31434272	     -0.06364801	      0.51438080	      0.23121063	     -0.23121063	     -0.51438080	      0.06364801	    101.32453438	     74.42343361	     -1.76844674	    -37.57369615	     31.61050339	     87.38426969	      0.33727494	     -0.54427200	      0.36462118	     -0.27213600	     42.60052368	    -21.15267182	     13.94453591	      9.08529465	    101.95923536	     10.93298461	     74.13330149	     85.98351704	    101.86879474	     -3.91916310	     76.08153505	     60.17511311	     96.54640169	    -13.99341106	     87.69270517	     47.49799368	    105.06810599	    -14.22607975	     95.79427024	      5.43464724	      0.00094558	     -0.03122305	     -0.00488358	      0.01409463	     -0.01878715	     -0.00083764	      0.00109329	     -0.06907502	     -0.00708927	      0.01289732	     -0.18219059	      0.00012264	     -0.01048609	      0.00365427	     -0.00080219	      0.00030880	      0.00012352	      0.00061759	      0.00039526	      0.00118578	      0.00066700	     -0.00000616	     -0.00005679	     -0.00006815	      0.00243944	      0.00855870	      0.00595388	     -0.00797985	      0.01926742	     -0.01827510	      0.00243944	      0.00855870	      0.00595388	      0.00053750	      0.01786164	     -0.00938563	      0.00388138	      0.00475939	      0.01580264	      0.00000000	      0.00740514	      0.00000000	     -0.00698754	     -0.03229153	     -0.00610369	      0.02185187	     -0.00102300	     -0.01150893	     -0.00086827	      0.01455393	     -0.00595388	      0.00239809	      0.02100396	     -0.01736548	     -0.00582984	      0.01261065	     -0.00533368	     -0.01215584	      0.02662707	     -0.02981074	     -0.02282321	      0.01409912	     -0.00715292	     -0.01513278	      0.03076171	     -0.03725309
      1.36666667	     -0.31430843	      0.13312622	     -0.13312622	      0.31430843	     -0.06364106	      0.51432469	      0.23118541	     -0.23118541	     -0.51432469	      0.06364106	    101.33920703	     74.41531495	     -1.76870282	    -37.56711368	     31.61919947	     87.38297072	      0.33730148	     -0.54426953	      0.36464218	     -0.27213476	     42.60060581	    -21.15322101	     13.94445136	      9.08502588	    101.95929476	     10.93335918	     74.13337696	     85.98332214	    101.86947867	     -3.91873417	     76.08197000	     60.17527447	     96.54767066	    -13.99323194	     87.69319225	     47.49808732	    105.06715889	    -14.22620986	     95.79368473	      5.43446006	      0.00094586	     -0.03122404	     -0.00488374	      0.01409476	     -0.01878951	     -0.00083787	      0.00109338	     -0.06907495	     -0.00708917	      0.01289717	     -0.18219063	      0.00012261	     -0.01048593	      0.00365420	     -0.00080214	      0.00030879	      0.00012351	      0.00061757	      0.00039525	      0.00118574	      0.00066698	     -0.00000616	     -0.00005679	     -0.00006814	      0.00243917	      0.00855777	      0.00595323	     -0.00797898	      0.01926531	     -0.01827311	      0.00243917	      0.00855777	      0.00595323	      0.00053744	      0.01785969	     -0.00938461	      0.00388107	      0.00475887	      0.01580185	      0.00000000	      0.00740351	      0.00000000	     -0.00698678	     -0.03228801	     -0.00610234	      0.02184956	     -0.00102276	     -0.01150523	     -0.00086818	      0.01455234	     -0.00595323	      0.00239783	      0.02100167	     -0.01736359	     -0.00582920	      0.01260927	     -0.00533310	     -0.01215451	      0.02662417	     -0.02980749	     -0.02282072	      0.01409758	     -0.00715214	     -0.01513113	      0.03075836	     -0.03724903
      1.40000000	     -0.31553928	      0.13364755	     -0.13364755	      0.31553928	     -0.06389029	      0.51633882	      0.23209075	     -0.23209075	     -0.51633882	      0.06389029	    100.51070622	     74.70673036	     -1.75424276	    -34.89825811	     32.32160881	     86.79793419	      0.37698418	     -0.41490240	      0.39529679	     -0.20745120	     42.54887088	    -21.60071697	     13.71842414	      8.01018064	    100.21343981	     11.29874329	     75.29540739	     83.67595961	    100.46598756	     -3.39785590	     77.02508682	     61.22485610	     95.71723996	    -13.93203571	     88.16515493	     48.32324121	    103.35310505	    -14.22184310	     95.60542052	      5.38059961	      0.00096910	     -0.03130455	     -0.00489671	      0.01415670	     -0.01898032	     -0.00093895	      0.00113661	     -0.06904700	     -0.00704204	      0.01282976	     -0.18221062	      0.00010601	     -0.01041573	      0.00362190	     -0.00078301	      0.00028034	      0.00011214	      0.00056069	      0.00035884	      0.00107652	      0.00060554	     -0.00000627	     -0.00005794	     -0.00006953	      0.00244872	      0.00859128	      0.00597654	     -0.00801023	      0.01934076	     -0.01834467	      0.00244872	      0.00859128	      0.00597654	      0.00053955	      0.01792963	     -0.00942136	      0.00389227	      0.00477750	      0.01582995	      0.00000000	      0.00746199	      0.00000000	     -0.00701414	     -0.03241445	     -0.00615091	      0.02088900	     -0.00092749	     -0.01002258	     -0.00087158	      0.01460933	     -0.00597654	      0.00240722	      0.02108392	     -0.01743159	     -0.00585203	      0.01265865	     -0.00535399	     -0.01220211	      0.02672843	     -0.02992422	     -0.02291008	      0.01415279	     -0.00718015	     -0.01519038	      0.03087881	     -0.03739490
